<?xml version="1.0" encoding="UTF-8"?>
<svg width="80" height="80" xmlns="http://www.w3.org/2000/svg" version="1.1" viewBox="0 0 595.28 841.89">
  <!-- Generator: Adobe Illustrator 28.6.0, SVG Export Plug-In . SVG Version: 1.2.0 Build 709)  -->
  <g>
    <g id="Calque_1">
      <path d="M273.8,514.33c-1.7-1.82-3.93-2.51.03-5.13,5.03-3.33,8.54-8.86,13.12-12.98,5.12-4.61,10.36-9.27,16.18-12.9,9.34-5.82,10.47-14.43,9.73-24.01-.55-7.2-4.85-12.61-9.5-17.44-3.88-4.03-8.94-6.91-13.2-10.61-4.3-3.74-8.16-7.99-12.43-11.76-2.77-2.45-5.77-4.74-8.98-6.55-2.43-1.37-4.28-1.96-4.96-5.58-.63-3.33-3.87-6.69-6.8-8.96-5.4-4.18-5.26-10.56-7.33-15.98-2.81-7.4-3.74-15.16-1.81-23.1.46-1.91-.2-4.07-.08-6.09.25-4.2,2.03-7.15,6.97-6.95-1.19-1.82-2.17-3.32-2.97-4.55,1.88-1.5,4.44-2.49,4.89-4.08,1.26-4.45,8-4.13,7.77-9.52,0-.14.53-.38.84-.44,8.18-1.61,12.7-8.75,19.22-12.89,6.75-4.29,13.07-9.33,19.2-14.49,5.25-4.42,7.51-10.78,9.88-17.13,6.82-18.27,2.79-36.75,1.56-55.15-.6-9.06-1.86-18.1-3.29-27.07-.74-4.65-2.61-9.11-3.77-13.7-1.56-6.16-.58-7.55,5.63-8.66,6.38-1.14,12.75-2.27,19.72-3.51,1.52,5.63,3.7,10.97,4.34,16.5,2.4,20.64,4.71,41.3,6.15,62.02.47,6.75.08,13.72-1.11,20.75-1.3,7.69-2.68,15.46-5.2,22.64-1.84,5.24-6.6,9.72-10.8,13.77-2.24,2.16-2.63,2.58-.53,2.66-4.69,3.29-9.33,6.66-14.11,9.83-2.27,1.51-4.87,2.54-7.16,4.03-.7.46-.89,1.7-1.68,3.33-6.4-.56-10.25,5.73-15.37,9.57-4.31,3.24-9.43,7-11.2,11.67-2.61,6.88-4.88,14.72-.53,22.26,1.25,2.16,1.32,5.85,3.03,6.74,4.47,2.33,4.39,7.48,7.81,10.36,7.88,6.63,13.95,15.37,23.65,19.93,1.61.76,2.47,2.98,3.95,4.19,2.69,2.19,5.58,4.14,9.16,6.75,1.46,2.07,3.16,5.75,5.95,8.16,5.75,4.98,7.6,11.57,8.82,18.45,1.37,7.72,2.4,15.5-.37,23.24-.38,1.05.73,2.63,1.11,3.82-1.81,1.98-3.62,3.95-5.44,5.94.47,1.29,1.06,2.89,1.74,4.72-2.08.37-3.71.66-5.33.96-1.55,7.23-8.4,9.43-13.03,13.74-7.35,6.83-16.02,12.74-21.62,20.79-6.3,9.04-11.32,19.36-11.42,31.29-.05,5.89-2.22,11.74-2.91,17.67-.37,3.13.6,6.4.54,9.6-.11,5.69-.84,11.38-.77,17.06.07,5.87.44,11.79,1.33,17.59,1.01,6.57.88,7.43-5.06,9.69-5.29,2.01-10.57,4.05-15.93,5.84-1.35.45-3.9.56-4.35-.15-1.39-2.21-2.12-4.86-2.87-7.4-.15-.49,1.25-1.47,1.09-1.93-2.74-7.93.26-15.95-.51-23.98-.83-8.68-.34-17.54.21-26.29.38-6.14,3.07-12.35,2.45-18.29-.74-7.07,1.59-13.35,2.93-19.76,1.23-5.9,4.78-11.4,7.81-16.79.66-1.17,3.48-1.13,5.61-1.73Z"/>
      <path d="M484.86,321.21c2.12,1.47,5.35,3.69,8.58,5.92-.2.43-.41.86-.61,1.28-1.99.29-3.99.57-7.54,1.08,3.28,1.49,5.26,2.39,7.02,3.19.6,4.76,1.21,9.56,1.93,15.25-1.49-.66-2.88-1.28-4.73-2.1-.31,1.64-.61,3.29-1.05,5.6-1.68-.75-3.16-1.42-4.61-2.06-4.04.71-7.41,5.33-12.59,2.15-.64-.39-3.21,2.36-5.4,4.06-.52-.4-1.58-1.24-2.66-2.09-2.69,2.63-4.75,2.3-5.94-2-2.06,2.49-3.67,6.09-6.51,1.42-.26-.42-2.9.61-5.03,1.11-.19-.22-.86-1-1.6-1.87-.48.28-1.14.44-1.25.77-.87,2.64-2.37,3.08-4.38,1.25-1.8-1.64-2.81-3.26-5.3-.08-1.18,1.51-5.32.77-8.12.93-2.97.17-6,.54-8.92.17-3.76-.48-7.41-1.82-11.16-2.41-5.55-.88-9.89,4.13-9.58,9.76.35,6.35-.15,12.74-.3,19.11-.16,7.29-.5,14.57-.47,21.86.03,8.03.58,16.05.58,24.07-.01,18.32-.25,36.63-.33,54.95-.02,5.54.32,11.09.21,16.63-.03,1.57-1.09,3.12-1.46,4.08.38,2.43.92,4.52.98,6.63.17,6.27.17,12.55.19,18.83.07,15.19.58,30.39-.03,45.55-.28,7.08-1.81,7.53-7.12,6.49.63-.66,1.19-1.25,1.76-1.85-.12-.21-.25-.42-.37-.63-.84.32-2.07.4-2.42,1-.69,1.16-.69,2.7-1.32,3.91-.78,1.48-1.91,3.9-2.88,3.89-1.5,0-2.87-2.08-4.51-2.63-3.22-1.08-6.59-1.72-10.15-2.61,0-48.27,0-96.6.09-144.93,0-.55,1.43-1.09,1.51-1.15-.82-1.54-2.25-2.97-2.25-4.41-.01-13.22.2-26.44.4-39.66.18-12.42.54-24.84.59-37.27.03-7.4-.42-14.79-.55-22.19-.03-1.89.32-3.79.49-5.56,2.73-1.69,5.56-3.45,9.56-5.93-1.07,2.02-1.51,2.84-1.95,3.66l.92,1.19c2.46-1.8,4.91-3.59,7.43-5.43.28.5.77,1.37,1.25,2.24,1.18-1.02,2.36-2.04,2.97-2.57,2.23.67,4.11,1.72,5.97,1.7,7.63-.08,15.26-.72,22.88-.69,7.22.02,14.45,1.06,21.65.85,10.7-.32,21.37-1.45,32.06-2.04,2.72-.15,5.48.38,8.22.67,1.59.17,3.17.49,5.88.91Z"/>
      <path d="M119.38,425.21c.68,2.7,1.66,4.82,1.69,6.96.2,14.43.31,28.87.23,43.31-.08,13.87-.52,27.74-.6,41.6-.04,8.04.49,16.09.46,24.13-.06,12.77-.56,25.53-.46,38.3.03,3.47-1.71,4.33-4,3.66-5.49-1.59-8.89,3.3-13.72,3.87-2.58.3-4.9,2.7-7.68,4.34-5.32-14.48-3.32-28.46-3.22-42.34.11-14.42-.21-28.84-.26-43.26-.06-15.8-.03-31.6-.08-47.4-.03-8.86-.15-17.72-.24-26.58-.03-2.56-.39-5.17.01-7.66.19-1.18,1.83-2.13,2.42-2.76-.68-1.24-2.28-2.83-2.31-4.46-.3-12.75-.43-25.52-.36-38.28.07-12.7.33-25.39.73-38.09.12-3.69,1.36-7.35,1.43-11.03.05-2.85-1.3-5.71-1.38-8.59-.34-12.1-.52-24.2-.6-36.31-.09-13.53-.02-27.05-.02-40.66q13.67-5.31,28.34-3.46c1.99,60.8.43,121.79,1.33,182.75.01.93-1.63,1.88-1.7,1.95Z"/>
      <path d="M199.47,384.81c5.99,12.1,3.2,24.78,3.54,37.16.55,19.97,1.02,39.94,1.52,59.91.33,13.09.74,26.18.86,39.27.01,1.49-1.65,3-2.34,4.17.79,1.15,2.52,2.51,2.55,3.9.25,12.43.23,24.86.22,37.29,0,3.41-.77,6.89-.28,10.21.55,3.76-1.72,4.13-3.9,3.63-5.57-1.25-9.44,2.73-14.15,4.06-2.18.61-4.08,2.19-6.25,3.41-3.95-7.08-4.79-13.69-4.48-20.98.45-10.24-.58-20.54-.82-30.83-.19-8.11-.09-16.24-.25-24.35-.15-7.65-.63-15.3-.68-22.95-.07-10.34.31-20.69.18-31.03-.12-9.62-.75-19.22-.96-28.84-.25-11.55-.35-23.1-.35-34.65,0-1.08,1.12-2.99,1.85-3.06,1.55-.14,3.19.68,5.73,1.37,4.51-4.12,9.8-9.12,18.01-7.7Z"/>
      <path d="M201.45,352.74c-2.85,1.87-5.79,3.8-9.45,6.2.47-1.54.7-2.29.91-2.95-2.25-.26-4.65-1.14-6.66-.59-2.08.57-3.81,2.5-5.64,3.92-.61.47-1.02,1.19-1.53,1.79-.35-.61-.78-1.18-1.04-1.83-.3-.73-.27-2.05-.71-2.21-7.67-2.74-3.45-9.37-4.54-14.18-.2-.88,1.72-2.24,2.71-3.43-1.05-.92-2.21-1.93-3.75-3.27,9.69-4.12,18.56-9.4,29.7-2.7v19.24Z"/>
      <path d="M456.89,396.95c-.31-2.47-.5-4.27-.76-6.06-1.15-8.05-1.14-8,6.71-10.18,1.42-.39,2.62-1.56,4.03-2,1.22-.38,2.63-.43,3.92-.27,3.71.45,7.4,1.07,11.22,1.64.2,2.14.29,3.95.55,5.73,1.18,8.13,1.18,8.08-6.9,10.3-1.32.36-2.41,1.59-3.73,1.95-1.32.36-2.82.28-4.21.15-3.52-.33-7.02-.8-10.83-1.25Z"/>
      <path d="M480.56,456.09c.4,3.23,1.2,6.46,1.08,9.66-.11,2.84-.77,5.67-4.87,6.15-2.54.3-4.9,2.14-7.36,3.27-.58.27-1.27.76-1.79.63-4.31-1.04-8.6-2.19-13.36-3.43,0-3.51-.03-6.99,0-10.46.03-2.75.47-4.59,3.5-1.75.71.66,2.18.5,3.82.82-.65-2.03-1.05-3.26-1.2-3.74,6.72-.38,13.41-.76,20.17-1.15Z"/>
      <path d="M464.44,551.01c.84-3.68,3.59-4.83,6.73-3.9,3.36.99,7.01.97,11.85,1.54-1.39,2.43-2.39,4.18-3.39,5.94.88,1.04,2.09,2.5,3.31,3.95-2.03.54-4.72.45-5.96,1.74-3.17,3.31-7.02,3.4-10.88,3.18-2.89-.16-5.81-1.06-8.54-2.1-.81-.31-1.03-2.19-.64-3.83,1.26,1.06,2.53,2.12,4.56,3.83-.23-1.92-.35-2.88-.62-5.14,2.69,1.64,4.62,2.82,6.21,3.79.8-2.36,1.69-5,2.87-8.48-1.72.17-3.3.32-4.89.48-.2-.33-.41-.66-.61-.99Z"/>
      <path d="M464.44,551.01c.2.33.41.66.61.99-.43.26-.85.52-1.28.78.22-.59.44-1.18.67-1.77Z"/>
    </g>
  </g>
</svg>